<?xml version="1.0" standalone="no"?>
<!DOCTYPE svg PUBLIC "-//W3C//DTD SVG 20010904//EN"
 "http://www.w3.org/TR/2001/REC-SVG-20010904/DTD/svg10.dtd">
<svg version="1.0" xmlns="http://www.w3.org/2000/svg"
 width="3425.000000pt" height="933.000000pt" viewBox="0 0 3425.000000 933.000000"
 preserveAspectRatio="xMidYMid meet">

<g transform="translate(0.000000,933.000000) scale(0.100000,-0.100000)"
fill="#000000" stroke="none">
<path d="M4570 9099 c-782 -47 -1543 -305 -2205 -748 -469 -314 -913 -761
-1221 -1227 -158 -240 -331 -570 -427 -814 -346 -880 -407 -1818 -177 -2742
116 -466 327 -941 604 -1362 311 -471 771 -931 1242 -1242 240 -158 570 -331
814 -427 879 -346 1834 -407 2745 -177 1340 340 2459 1304 2998 2586 345 820
434 1741 252 2621 -255 1240 -1035 2316 -2140 2953 -143 83 -418 215 -570 275
-608 240 -1259 343 -1915 304z m698 -285 c522 -54 996 -193 1462 -430 414
-210 722 -435 1061 -773 342 -343 574 -663 784 -1081 410 -820 537 -1726 369
-2637 -69 -375 -191 -737 -369 -1093 -210 -418 -442 -738 -784 -1081 -339
-338 -647 -563 -1061 -773 -1169 -593 -2545 -604 -3715 -28 -435 215 -767 453
-1116 801 -348 349 -586 681 -801 1116 -284 577 -421 1173 -421 1830 0 543 90
1027 284 1520 151 385 369 762 635 1095 138 173 461 496 634 634 868 692 1950
1013 3038 900z"/>
<path d="M4536 7849 c-642 -66 -1212 -299 -1723 -704 -118 -94 -356 -327 -456
-448 -308 -372 -525 -792 -647 -1252 -123 -462 -138 -971 -44 -1455 61 -315
108 -401 262 -477 72 -36 81 -38 171 -38 87 0 102 3 163 32 83 39 155 108 193
187 44 90 46 184 7 356 -116 506 -81 995 104 1468 118 303 287 563 529 811
290 298 612 498 1005 626 654 212 1394 129 1987 -223 883 -523 1347 -1528
1173 -2537 -69 -396 -235 -768 -488 -1095 -83 -106 -281 -306 -387 -390 -195
-154 -459 -304 -675 -383 -52 -19 -124 -44 -159 -57 -86 -32 -169 -109 -213
-198 -31 -62 -33 -73 -33 -172 0 -99 2 -110 32 -171 66 -133 184 -210 334
-217 80 -4 93 -2 220 41 479 160 886 413 1249 777 533 532 839 1174 931 1950
21 173 16 566 -10 755 -125 929 -623 1738 -1396 2267 -331 227 -715 393 -1113
483 -230 52 -370 67 -657 70 -148 2 -310 -1 -359 -6z"/>
<path d="M4685 6834 c-790 -64 -1465 -508 -1833 -1204 -108 -204 -192 -468
-228 -715 -36 -242 -21 -575 36 -821 190 -816 817 -1455 1626 -1660 328 -83
670 -90 1004 -23 671 136 1245 578 1553 1196 53 108 62 133 65 192 5 86 -22
154 -83 210 -59 54 -107 73 -185 73 -129 0 -193 -51 -280 -222 -252 -493 -659
-806 -1200 -921 -89 -19 -137 -23 -315 -23 -181 -1 -226 2 -324 22 -729 148
-1270 726 -1361 1455 -17 135 -7 411 19 539 138 673 647 1181 1331 1330 92 19
133 22 330 22 246 0 315 -9 524 -74 54 -16 117 -30 140 -30 93 0 183 53 232
136 36 61 44 164 19 231 -21 56 -76 118 -124 143 -85 43 -296 98 -474 125
-108 16 -377 27 -472 19z"/>
<path d="M4647 6035 c-254 -41 -494 -149 -692 -308 -96 -78 -118 -112 -118
-181 0 -97 62 -166 157 -174 62 -5 95 9 171 73 120 100 274 180 432 222 87 24
116 27 268 27 142 0 183 -3 251 -21 435 -115 736 -426 830 -858 23 -110 23
-312 0 -425 -73 -346 -295 -631 -608 -780 -378 -179 -802 -133 -1143 125 -55
42 -110 78 -123 82 -40 10 -122 -3 -150 -24 -49 -36 -72 -81 -72 -140 0 -68
16 -98 81 -157 161 -144 411 -266 652 -318 137 -29 408 -31 542 -5 659 133
1123 645 1186 1310 27 280 -42 590 -187 842 -205 356 -529 593 -944 692 -134
31 -396 40 -533 18z"/>
<path d="M11705 6924 c-245 -37 -429 -123 -548 -254 -104 -115 -156 -274 -143
-436 16 -214 113 -354 310 -449 87 -41 167 -69 536 -185 259 -82 306 -113 298
-201 -6 -60 -36 -102 -96 -131 -42 -20 -61 -23 -172 -23 -110 0 -131 3 -178
24 -86 39 -142 123 -142 215 l0 26 -321 0 -322 0 6 -79 c12 -155 94 -331 198
-426 178 -164 413 -239 744 -240 333 0 554 73 721 239 130 130 187 271 187
461 1 216 -96 386 -280 493 -115 67 -227 106 -595 207 -109 30 -211 61 -227
70 -86 44 -80 149 12 197 34 18 58 22 132 22 50 0 108 -6 130 -13 80 -27 145
-96 145 -153 l0 -28 300 0 300 0 0 48 c0 71 -34 193 -76 272 -76 146 -244 261
-459 316 -83 21 -128 26 -265 29 -91 2 -178 1 -195 -1z"/>
<path d="M25615 6915 c-294 -52 -536 -216 -683 -462 -99 -166 -147 -332 -158
-548 -15 -275 47 -526 181 -731 128 -197 299 -321 523 -381 85 -23 117 -26
262 -27 189 -1 243 10 376 73 56 27 103 59 152 105 80 76 77 78 87 -51 l7 -83
199 0 199 0 0 570 0 570 -420 0 -420 0 0 -225 0 -225 130 0 c145 0 146 0 111
-68 -27 -53 -98 -117 -156 -143 -69 -31 -209 -38 -291 -14 -156 44 -253 163
-289 350 -20 103 -19 324 1 423 32 155 106 262 222 319 51 25 68 28 157 28 89
0 106 -3 157 -28 68 -33 122 -93 146 -159 l17 -48 302 0 c236 0 303 3 303 13
0 6 -9 49 -20 93 -74 309 -318 548 -648 635 -101 27 -332 34 -447 14z"/>
<path d="M20120 6880 c-139 -13 -249 -56 -330 -128 -86 -76 -129 -196 -130
-359 l0 -83 -105 0 -105 0 0 -175 0 -175 105 0 105 0 0 -575 0 -575 285 0 285
0 0 575 0 575 145 0 145 0 0 175 0 175 -150 0 -150 0 0 49 c0 116 29 136 196
136 l111 0 7 119 c3 66 6 152 6 191 l0 72 -46 7 c-59 8 -275 6 -374 -4z"/>
<path d="M18630 6680 l0 -200 285 0 285 0 0 200 0 200 -285 0 -285 0 0 -200z"/>
<path d="M20820 6680 l0 -200 285 0 285 0 0 200 0 200 -285 0 -285 0 0 -200z"/>
<path d="M13842 6334 c-86 -23 -160 -65 -218 -122 l-54 -54 0 76 0 76 -275 0
-275 0 0 -990 0 -990 285 0 285 0 0 317 0 316 58 -55 c206 -196 554 -183 766
28 137 138 206 343 206 614 0 280 -70 480 -220 630 -84 85 -164 132 -261 155
-80 18 -227 18 -297 -1z m95 -476 c30 -20 50 -45 74 -93 29 -59 33 -78 37
-172 6 -132 -10 -226 -48 -286 -93 -148 -313 -131 -394 30 -40 79 -45 282 -10
391 20 61 63 115 112 142 57 31 174 24 229 -12z"/>
<path d="M15540 6343 c-406 -68 -667 -386 -663 -808 2 -212 66 -381 195 -521
165 -176 389 -254 697 -241 107 4 155 11 226 32 211 62 363 184 450 361 19 39
35 76 35 82 0 9 -69 12 -265 12 l-265 0 -41 -44 c-56 -62 -107 -80 -212 -74
-68 3 -93 9 -129 31 -79 46 -131 126 -144 221 l-7 46 546 0 547 0 6 24 c3 14
1 73 -6 131 -44 416 -274 677 -654 744 -57 11 -264 13 -316 4z m279 -383 c53
-27 106 -92 121 -148 7 -26 14 -55 17 -64 4 -17 -13 -18 -267 -18 l-270 0 6
28 c37 153 149 239 297 227 31 -3 75 -14 96 -25z"/>
<path d="M17378 6340 c-309 -56 -540 -267 -619 -565 -29 -106 -31 -326 -5
-430 64 -262 268 -469 536 -545 95 -27 303 -38 410 -21 96 15 224 59 297 102
92 54 202 170 251 266 37 71 82 209 82 250 0 10 -52 13 -275 13 l-275 0 0 -22
c0 -32 -43 -119 -71 -145 -82 -75 -228 -71 -315 9 -70 65 -88 124 -89 293 0
179 22 263 89 330 53 52 99 68 181 63 48 -3 72 -10 103 -31 38 -27 92 -109 92
-141 0 -14 29 -16 276 -16 l276 0 -7 43 c-24 141 -87 259 -192 357 -84 78
-174 129 -298 166 -77 22 -112 27 -245 30 -85 1 -176 -1 -202 -6z"/>
<path d="M22265 6330 c-57 -12 -125 -37 -185 -66 -80 -40 -110 -62 -186 -139
-81 -80 -98 -103 -142 -195 -65 -136 -82 -214 -82 -383 0 -160 19 -249 80
-365 108 -208 291 -345 526 -393 140 -30 340 -23 469 16 137 40 217 87 316
185 70 70 94 101 127 170 39 83 72 186 72 229 0 21 -1 21 -271 19 l-272 -3
-16 -53 c-40 -131 -155 -190 -296 -151 -129 36 -198 229 -165 463 18 126 57
200 130 244 68 40 148 44 218 11 50 -25 99 -85 108 -135 l6 -34 275 0 276 0
-6 45 c-30 212 -186 402 -405 491 -114 46 -171 56 -332 60 -126 3 -172 0 -245
-16z"/>
<path d="M28010 6339 c-119 -21 -236 -99 -301 -201 l-34 -53 -3 113 -3 112
-269 0 -270 0 0 -750 0 -750 280 0 280 0 0 348 c0 191 5 378 10 415 19 128 92
223 209 269 68 27 209 29 284 5 l47 -15 0 248 c0 146 -4 251 -9 255 -19 11
-166 14 -221 4z"/>
<path d="M29030 6335 c-174 -37 -296 -101 -411 -215 -71 -71 -93 -101 -131
-180 -71 -145 -83 -197 -83 -385 0 -138 3 -171 23 -239 75 -258 268 -451 519
-517 112 -30 318 -36 442 -15 169 30 283 88 407 211 66 66 89 97 128 175 123
251 127 528 10 768 -40 82 -60 110 -138 188 -78 78 -105 98 -186 137 -52 25
-124 53 -160 62 -89 23 -332 29 -420 10z m245 -406 c58 -16 126 -90 148 -159
37 -121 30 -349 -13 -448 -41 -92 -113 -142 -202 -142 -101 1 -177 59 -213
163 -23 68 -32 284 -15 370 34 176 145 257 295 216z"/>
<path d="M33068 6335 c-87 -22 -156 -61 -220 -125 l-58 -58 0 79 0 79 -270 0
-270 0 0 -990 0 -990 285 0 285 0 0 314 0 315 51 -50 c101 -98 238 -145 399
-136 290 17 492 213 556 542 24 122 24 368 0 480 -56 255 -212 454 -411 526
-78 28 -263 35 -347 14z m65 -459 c47 -19 101 -87 123 -154 26 -79 26 -274 0
-351 -70 -205 -328 -226 -422 -34 -28 56 -29 63 -29 208 0 135 2 155 23 200
27 58 75 112 117 131 39 17 147 18 188 0z"/>
<path d="M18630 5560 l0 -750 285 0 285 0 0 750 0 750 -285 0 -285 0 0 -750z"/>
<path d="M20820 5560 l0 -750 285 0 285 0 0 750 0 750 -285 0 -285 0 0 -750z"/>
<path d="M30323 5748 c3 -485 6 -570 20 -617 74 -244 272 -372 552 -358 164 9
269 57 370 171 l55 61 0 -97 0 -98 275 0 275 0 0 750 0 750 -279 0 -280 0 -3
-447 -3 -448 -28 -58 c-21 -42 -39 -63 -71 -82 -86 -50 -206 -42 -264 18 -62
64 -62 61 -62 562 l0 455 -281 0 -280 0 4 -562z"/>
<path d="M23480 5585 l0 -245 455 0 455 0 0 245 0 245 -455 0 -455 0 0 -245z"/>
<path d="M11445 3976 c-125 -29 -217 -77 -296 -156 -68 -67 -105 -141 -126
-250 -38 -191 38 -365 194 -447 80 -42 149 -63 435 -132 291 -71 377 -104 452
-172 74 -67 100 -130 94 -224 -6 -85 -31 -139 -96 -204 -58 -58 -150 -105
-249 -127 -92 -20 -293 -15 -388 11 -189 52 -302 167 -334 339 -6 33 -11 75
-11 93 l0 34 -82 -3 -83 -3 -3 -37 c-2 -21 3 -75 11 -122 39 -223 183 -370
432 -438 70 -19 106 -22 285 -23 185 0 213 2 285 23 234 68 367 206 397 410
23 157 -19 291 -121 384 -102 94 -220 138 -615 233 -270 65 -340 94 -393 163
-42 56 -57 111 -50 194 14 167 119 273 310 312 288 60 549 -60 621 -285 8 -24
17 -61 21 -81 l6 -38 83 0 83 0 -4 53 c-19 230 -174 405 -423 477 -96 28 -342
37 -435 16z"/>
<path d="M23190 3975 c-159 -36 -315 -147 -374 -267 -81 -166 -65 -373 40
-497 75 -89 161 -124 533 -217 321 -79 407 -112 479 -184 62 -62 77 -101 77
-200 0 -76 -3 -91 -30 -139 -54 -98 -160 -170 -305 -207 -81 -21 -302 -14
-394 11 -202 56 -311 179 -338 379 l-12 87 -80 -3 -81 -3 3 -80 c9 -260 165
-444 437 -516 99 -27 361 -37 474 -20 181 28 321 101 403 208 73 97 92 156 92
293 0 145 -20 203 -102 291 -44 48 -75 70 -158 110 -88 43 -146 61 -417 129
-173 43 -333 88 -356 99 -108 56 -159 153 -147 280 16 162 122 267 309 305
313 65 587 -82 637 -341 l13 -63 84 0 84 0 -7 58 c-16 137 -79 261 -172 342
-56 48 -184 113 -267 136 -85 23 -339 28 -425 9z"/>
<path d="M14620 3941 c-139 -43 -190 -144 -190 -376 l0 -115 -115 0 -115 0 0
-65 0 -65 115 0 115 0 0 -590 0 -590 75 0 75 0 0 590 0 590 130 0 130 0 0 65
0 65 -131 0 -131 0 4 128 c6 207 39 245 201 240 l87 -3 0 68 0 67 -112 -1
c-62 0 -124 -4 -138 -8z"/>
<path d="M26090 3045 l0 -905 80 0 80 0 0 905 0 905 -80 0 -80 0 0 -905z"/>
<path d="M29140 3825 l0 -125 80 0 80 0 0 125 0 125 -80 0 -80 0 0 -125z"/>
<path d="M15250 3650 l0 -200 -115 0 -115 0 0 -65 0 -65 115 0 114 0 3 -522 3
-523 25 -45 c19 -33 38 -51 75 -70 44 -22 66 -25 183 -28 l132 -4 0 66 0 66
-90 0 c-59 0 -101 5 -119 14 -56 29 -56 29 -59 559 l-3 487 136 0 135 0 0 65
0 65 -135 0 -135 0 0 200 0 200 -75 0 -75 0 0 -200z"/>
<path d="M28330 3650 l0 -200 -115 0 -115 0 0 -65 0 -65 115 0 114 0 3 -518 3
-518 25 -49 c20 -38 36 -54 75 -74 44 -22 66 -26 183 -29 l132 -4 0 65 0 65
-100 4 c-92 3 -102 5 -126 29 -39 39 -45 125 -42 604 l3 420 133 3 132 3 0 64
0 64 -132 3 -133 3 -3 198 -2 197 -75 0 -75 0 0 -200z"/>
<path d="M13203 3479 c-170 -28 -333 -151 -413 -309 -61 -121 -75 -189 -75
-370 0 -186 12 -247 70 -365 77 -158 216 -272 377 -310 82 -19 247 -19 323 0
104 27 184 72 261 149 81 82 113 135 157 261 30 87 32 96 32 255 0 186 -11
244 -71 365 -121 248 -374 372 -661 324z m206 -129 c221 -42 374 -268 374
-550 1 -180 -48 -321 -149 -430 -163 -176 -428 -182 -603 -15 -66 63 -109 136
-142 245 -30 97 -33 279 -5 380 74 269 282 416 525 370z"/>
<path d="M18430 3479 c-99 -14 -195 -54 -256 -107 -68 -58 -123 -169 -138
-279 l-6 -43 80 0 80 0 0 28 c0 107 76 210 185 252 78 30 249 34 335 8 73 -22
133 -75 157 -136 26 -68 24 -182 -3 -219 -39 -52 -71 -62 -280 -89 -325 -40
-442 -79 -528 -175 -62 -69 -80 -131 -74 -258 3 -72 10 -107 27 -142 69 -144
197 -209 411 -209 206 0 323 57 438 214 l37 50 7 -59 c9 -72 22 -106 51 -133
38 -35 130 -51 206 -36 31 6 31 7 31 68 l0 61 -50 0 c-38 0 -55 5 -72 23 l-23
23 -5 442 -5 442 -29 63 c-36 78 -114 152 -189 181 -99 36 -260 49 -387 30z
m451 -904 c-37 -199 -217 -337 -441 -339 -129 0 -221 46 -275 139 -48 80 -43
191 11 255 62 73 158 107 405 145 198 30 270 47 290 71 12 15 14 1 17 -100 1
-65 -2 -142 -7 -171z"/>
<path d="M20820 3474 c-161 -35 -297 -144 -370 -295 -47 -100 -67 -173 -80
-293 -10 -100 0 -245 25 -341 26 -101 92 -224 154 -285 106 -105 229 -150 412
-150 283 0 450 116 539 376 30 85 31 84 -54 84 l-74 0 -17 -49 c-21 -65 -82
-157 -130 -199 -100 -89 -278 -113 -423 -60 -78 29 -173 121 -217 212 -37 75
-68 198 -63 250 l3 31 504 3 504 2 -6 103 c-12 204 -73 356 -191 473 -42 41
-94 82 -126 97 -110 54 -260 70 -390 41z m235 -129 c141 -37 253 -155 297
-314 10 -36 18 -83 18 -103 l0 -38 -425 0 c-234 0 -425 4 -425 8 0 5 9 43 19
84 71 278 280 424 516 363z"/>
<path d="M24953 3479 c-239 -40 -423 -236 -478 -508 -21 -103 -16 -312 10
-406 62 -224 238 -402 443 -444 68 -14 226 -14 294 0 156 32 319 161 390 309
54 111 69 178 75 332 5 118 3 151 -16 231 -12 51 -34 120 -50 153 -122 254
-377 382 -668 333z m208 -129 c168 -32 302 -175 356 -380 23 -88 23 -263 0
-350 -69 -262 -275 -417 -506 -381 -181 28 -322 171 -378 381 -23 87 -23 262
0 350 73 277 281 426 528 380z"/>
<path d="M30181 3475 c-221 -50 -385 -213 -453 -450 -33 -116 -33 -344 0 -460
65 -227 221 -388 427 -440 76 -19 241 -19 324 0 162 39 300 152 375 308 61
126 81 221 79 377 -3 330 -163 573 -433 654 -78 24 -240 29 -319 11z m244
-130 c156 -41 269 -160 327 -345 19 -63 23 -96 23 -210 -1 -121 -4 -143 -29
-215 -67 -192 -193 -309 -364 -335 -294 -46 -523 199 -523 560 1 121 16 193
66 298 94 200 296 299 500 247z"/>
<path d="M31790 3473 c-115 -32 -201 -93 -262 -187 l-38 -59 0 111 0 112 -80
0 -80 0 0 -655 0 -655 80 0 80 0 0 418 c0 454 3 481 57 590 36 71 126 154 200
183 46 18 78 23 158 23 90 1 106 -2 157 -27 74 -36 123 -94 150 -177 21 -62
22 -84 26 -537 l3 -473 75 0 74 0 0 479 c0 510 -5 572 -50 661 -67 130 -191
197 -384 206 -77 3 -117 0 -166 -13z"/>
<path d="M33225 3484 c-108 -22 -138 -30 -191 -54 -81 -36 -137 -88 -174 -162
-26 -54 -30 -71 -30 -147 0 -104 25 -166 88 -223 73 -66 163 -100 432 -162
252 -59 334 -120 334 -248 0 -38 -7 -75 -16 -93 -79 -149 -350 -207 -542 -117
-105 49 -168 131 -182 235 l-7 47 -79 0 -79 0 7 -47 c31 -210 152 -340 361
-389 52 -12 101 -15 203 -11 158 5 233 25 327 86 117 76 169 179 161 320 -6
93 -36 158 -103 220 -67 61 -146 93 -340 136 -211 46 -292 76 -350 127 -52 46
-71 95 -61 161 15 101 103 169 245 189 201 30 370 -64 403 -222 l12 -60 78 0
78 0 -6 33 c-20 124 -45 178 -115 252 -82 87 -220 137 -374 134 -33 -1 -69 -3
-80 -5z"/>
<path d="M20035 3460 c-143 -30 -261 -119 -328 -247 -17 -35 -35 -63 -39 -63
-5 0 -8 68 -8 150 l0 150 -70 0 -70 0 0 -655 0 -655 80 0 80 0 0 388 c0 421 4
456 57 554 37 68 130 153 208 189 49 23 85 32 145 36 l80 6 0 78 0 79 -47 -1
c-27 -1 -66 -5 -88 -9z"/>
<path d="M15880 3443 c0 -4 94 -298 208 -653 l208 -645 86 -3 87 -3 11 38 c6
21 78 267 159 546 81 280 151 508 156 508 5 0 59 -175 122 -388 62 -213 134
-459 159 -545 l47 -158 86 0 86 0 208 648 c114 356 207 650 207 655 0 4 -36 7
-80 7 l-79 0 -25 -82 c-14 -45 -90 -297 -168 -560 -78 -263 -145 -478 -148
-478 -3 0 -78 252 -165 560 l-160 561 -90 -3 -89 -3 -160 -557 c-87 -307 -162
-558 -165 -558 -3 0 -81 251 -172 558 l-165 557 -82 3 c-45 2 -82 -1 -82 -5z"/>
<path d="M26712 2958 c4 -425 7 -501 21 -551 60 -205 192 -297 427 -297 197 0
339 70 432 214 l38 59 0 -121 0 -122 70 0 70 0 0 655 0 655 -74 0 -74 0 -5
-412 c-3 -355 -6 -421 -21 -473 -44 -150 -122 -252 -228 -300 -54 -25 -75 -28
-153 -28 -49 0 -108 5 -130 11 -63 18 -131 66 -159 114 -53 91 -56 123 -56
625 l0 463 -81 0 -80 0 3 -492z"/>
<path d="M29140 2795 l0 -655 80 0 80 0 0 655 0 655 -80 0 -80 0 0 -655z"/>
</g>
</svg>
